<svg xmlns="http://www.w3.org/2000/svg" width="38.754" height="37.186" viewBox="0 0 38.754 37.186">
  <path id="Oval" d="M2.177,17.44C3.652,7.049,14.036,1.059,24.047,2.333c9.263,1.181,12.483,10.568,12.6,18.792C36.82,33.85,20.965,37.551,11.266,33.417c-6.7-2.853-9.889-9.128-9.051-16.254.156-1.326-1.922-1.312-2.078,0-.831,7.06,2.071,13.7,8.376,17.209A24,24,0,0,0,27.54,35.907c6.032-2.081,10.686-6.887,11.146-13.442.592-8.4-2.794-18.916-11.6-21.6C15.636-2.626,1.893,4.778.175,16.886-.012,18.2,1.99,18.76,2.177,17.44Z" transform="translate(0.002 0.001)"/>
</svg>
