<svg xmlns="http://www.w3.org/2000/svg" width="341" height="179.046" viewBox="0 0 341 179.046">
  <g id="Grupo_108" data-name="Grupo 108" transform="translate(931.625 490.644)">
    <g id="Grupo_107" data-name="Grupo 107" transform="translate(-928.039 -490.644)">
      <path id="Caminho_11" data-name="Caminho 11" d="M308.378,337.086a28.258,28.258,0,0,0-12.395,6.012c-2.417,2.231-3.285,2.541-9.606,3.78-15.618,3.037-25.286,8.181-27.827,14.75-.868,2.231-.93,3.161-.372,5.082,2.045,6.817,14.254,13.015,31.421,15.927,3.409.558,6.259,1.116,6.321,1.177.124.062-2.479,22.187-10.1,78.956l-1.3,10.412,1.983.372s11.093-86.95,11.465-88.562a14.44,14.44,0,0,1,2.107,1.116,26.656,26.656,0,0,0,6.631,2.169,26.032,26.032,0,0,0,15.927-1.425,16.12,16.12,0,0,1,4.152-1.3c.124.062,1.921,13.139,4.028,29s3.966,28.942,4.152,29.128c.124.124.868-.124,1.611-.62L332.982,416.1,331,401.54c-2.6-19.212-2.6-17.787.62-18.283,22.187-3.533,35.14-10.35,35.14-18.53,0-7.747-10.536-14.44-28.136-17.849-6.074-1.178-7.189-1.611-9.668-3.657a28.532,28.532,0,0,0-12.829-6.135C312.158,336.4,312.468,336.4,308.378,337.086Zm13.263,3.842A26.006,26.006,0,0,1,333.6,353.386c3.409,7.313,3.409,7.251-2.975,8.924a74.548,74.548,0,0,1-24.6,2.045c-6.569-.682-15.927-2.727-16.981-3.718-.682-.682,1.673-7.5,3.533-10.226a25.93,25.93,0,0,1,12.147-10.04C309.555,338.326,316.558,338.574,321.64,340.929Zm-30.863,7.933a36.017,36.017,0,0,1-6.755,2.169c-14.44,3.78-21.009,10.474-15.989,16.423,3.037,3.595,11.279,7.747,12.7,6.321.5-.5-.558-1.24-3.9-2.789-9.606-4.4-10.97-8.862-4.09-13.263,2.541-1.611,10.6-4.648,14.564-5.454,1.983-.434,1.983-.372,1.3,1.363-.372.93-1.054,3.037-1.487,4.648-1.054,3.719-.434,4.338,6.2,6.012,13.758,3.533,28.508,3.285,40.469-.744l4.152-1.363-.124-2.789a20.13,20.13,0,0,0-2.231-7.065l-2.107-4.214,2.975.372c9.048,1.24,22.435,6.693,25.905,10.6,3.533,4.028,3.285,7.251-.806,11.155-7.251,6.941-23.488,11.217-44.684,11.9-30.925.93-56.707-7.189-56.707-17.911,0-3.347,3.595-7.127,9.606-10.1C276.089,351.031,292.822,346.816,290.777,348.861ZM321.516,385.3c-1.611.744-3.966,1.054-8.986,1.054s-7.375-.31-8.986-1.054c-2.107-.93-1.8-.992,8.986-.992S323.624,384.373,321.516,385.3Zm4.462,45.8c.124,1.859-.062,3.285-.434,3.285-.806.062-1.859-5.144-1.3-6.569C324.925,426.02,325.793,427.631,325.979,431.1Zm-15-.868c0,1.8-1.487,3.966-2.045,3.1-.682-1.054.248-4.524,1.178-4.524C310.609,428.809,310.981,429.428,310.981,430.234Zm8.676,10.474c.062.434.434,3.533.868,6.879.744,5.64.434,7.685-.868,6.259-.434-.5-1.859-10.288-1.859-12.829C317.8,439.84,319.657,439.53,319.657,440.708Zm-10.474,10.164c-.186,3.037-.992,4.834-1.921,4.276-.5-.31-.31-2.913.372-6.383C308.192,445.976,309.431,447.649,309.184,450.872Zm-12.457,3.223c0,.992-.31,4.152-.682,7-.682,5.02-1.3,6.817-2.169,5.95-.434-.434.868-13.325,1.425-14.254C295.921,451.739,296.727,452.483,296.727,454.094Z" transform="translate(-257.817 -336.575)"/>
      <path id="Caminho_12" data-name="Caminho 12" d="M328.474,345.314c-3.842,1.054-5.33,1.921-8.862,5.268-2.789,2.541-6.012,7.809-6.012,9.792,0,1.859,1.921.558,3.1-2.107,2.727-6.2,7.127-9.792,13.634-11.093,2.355-.434,3.471-.992,3.595-1.673C334.176,344.26,332.564,344.2,328.474,345.314Z" transform="translate(-279.029 -339.596)"/>
      <path id="Caminho_13" data-name="Caminho 13" d="M304.25,398.361c-.248.682.062,1.054.992,1.24,5.764,1.239,7.623,1.487,8.119.992.93-.93-.186-1.735-3.161-2.169-1.673-.186-3.595-.558-4.276-.682C305.055,397.494,304.5,397.742,304.25,398.361Z" transform="translate(-275.442 -359.798)"/>
      <path id="Caminho_14" data-name="Caminho 14" d="M360.694,430.449c.062,4.462,1.487,12.519,2.293,12.767.93.31.93-2.727-.062-9.42-.434-2.789-1.054-5.02-1.487-5.206C360.88,428.466,360.632,429.023,360.694,430.449Z" transform="translate(-296.933 -371.558)"/>
      <path id="Caminho_15" data-name="Caminho 15" d="M331.862,447.231c-.682,3.347-.434,6.135.5,6.135.868,0,1.983-6.383,1.3-7.5C332.977,444.814,332.234,445.31,331.862,447.231Z" transform="translate(-285.826 -377.928)"/>
      <path id="Caminho_16" data-name="Caminho 16" d="M333.851,447.6c1.3,3.161,3.1,5.33,3.842,4.772.744-.5-1.921-6.383-3.161-6.941C333.417,445,333.108,445.8,333.851,447.6Z" transform="translate(-286.576 -377.923)"/>
      <path id="Caminho_17" data-name="Caminho 17" d="M340.909,435.291c-1.3,4.276-2.417,12.395-1.735,12.829.806.558,1.735-2.293,2.851-8.986.434-2.789.558-5.082.186-5.392C341.714,433.432,341.342,433.866,340.909,435.291Z" transform="translate(-288.675 -373.487)"/>
      <path id="Caminho_18" data-name="Caminho 18" d="M325.387,436.211c-.31,1.178,2.789,13.325,3.533,13.634,1.239.5,1.116-1.8-.434-7.685C326.874,436.025,325.944,434.166,325.387,436.211Z" transform="translate(-283.503 -374.159)"/>
      <path id="Caminho_19" data-name="Caminho 19" d="M330.291,500.592c-1.363,3.1-1.735,5.888-.806,6.073.868.186,3.285-5.826,2.851-7.065C331.84,498.485,331.035,498.795,330.291,500.592Z" transform="translate(-284.874 -398.319)"/>
      <path id="Caminho_20" data-name="Caminho 20" d="M332.178,500.993c.31,3.409,1.3,6.012,2.231,5.764.806-.248.124-6.693-.868-7.561C332.55,498.39,331.992,499.072,332.178,500.993Z" transform="translate(-286.08 -398.286)"/>
      <path id="Caminho_21" data-name="Caminho 21" d="M340.749,493.867c-2.541,3.161-6.074,9.73-5.578,10.412.558.806,2.293-1.3,5.392-6.693,1.24-2.231,2.045-4.214,1.859-4.586C341.988,492.627,341.493,492.875,340.749,493.867Z" transform="translate(-287.214 -395.994)"/>
      <path id="Caminho_22" data-name="Caminho 22" d="M323.687,488.911c-.31,1.178,2.789,13.325,3.533,13.634,1.239.5,1.116-1.8-.434-7.685C325.174,488.725,324.244,486.866,323.687,488.911Z" transform="translate(-282.856 -394.198)"/>
      <path id="Caminho_23" data-name="Caminho 23" d="M349.462,472.831c-.682,3.347-.434,6.135.5,6.135.868,0,1.983-6.383,1.3-7.5C350.577,470.414,349.834,470.909,349.462,472.831Z" transform="translate(-292.518 -387.662)"/>
      <path id="Caminho_24" data-name="Caminho 24" d="M351.451,473.2c1.3,3.161,3.1,5.33,3.842,4.772.744-.5-1.921-6.383-3.161-6.941C351.017,470.6,350.708,471.4,351.451,473.2Z" transform="translate(-293.268 -387.658)"/>
      <path id="Caminho_25" data-name="Caminho 25" d="M360.138,467.541c-1.673,2.665-3.533,8.243-2.913,8.8.682.682,1.8-1.116,3.533-5.64.682-1.859,1.054-3.533.744-3.9C361.006,466.425,360.572,466.673,360.138,467.541Z" transform="translate(-295.571 -386.029)"/>
      <path id="Caminho_26" data-name="Caminho 26" d="M342.593,463.6c-.248,1.178,3.78,12.085,4.524,12.271,1.24.31.93-1.8-.992-7.189C344.081,463.228,343.027,461.616,342.593,463.6Z" transform="translate(-290.05 -384.567)"/>
      <path id="Caminho_27" data-name="Caminho 27" d="M352.846,445.243c-.62,1.611,0,8.057.868,8.367.558.186.744-.93.744-4.152C354.457,445.429,353.652,443.26,352.846,445.243Z" transform="translate(-293.857 -377.613)"/>
      <path id="Caminho_28" data-name="Caminho 28" d="M329.416,464.884c-1.116,1.3-2.6,7.623-1.921,8.181.5.372.992-.62,2.045-3.656C330.9,465.628,330.841,463.273,329.416,464.884Z" transform="translate(-284.247 -385.169)"/>
      <path id="Caminho_29" data-name="Caminho 29" d="M351.452,423.659c-1.054,1.054-.93,4.214.124,4.214.93,0,1.921-3.657,1.116-4.462C352.443,423.163,351.885,423.225,351.452,423.659Z" transform="translate(-293.144 -369.54)"/>
    </g>
    <text id="Ufo_Detector" data-name="Ufo Detector" transform="translate(-801.46 -427.948)" font-size="40" font-family="Schoolbell-Regular, Schoolbell"><tspan x="0" y="0">Ufo Detector</tspan></text>
    <text id="Detect_Vulnerabilities_in_your_website_" data-name="Detect Vulnerabilities in your website " transform="translate(-931.625 -335.598)" font-size="20" font-family="Raleway-Regular, Raleway"><tspan x="0" y="19">Detect Vulnerabilities in your website </tspan></text>
  </g>
</svg>
