<svg xmlns="http://www.w3.org/2000/svg" width="151" height="149.221" viewBox="0 0 151 149.221">
  <g id="Grupo_107" data-name="Grupo 107" transform="translate(-607.5 -514.027)">
    <text id="page_not_found" data-name="page not found" transform="translate(607.5 628.248)" font-size="25" font-family="Schoolbell-Regular, Schoolbell"><tspan x="0" y="25">page not found</tspan></text>
    <g id="Grupo_22" data-name="Grupo 22" transform="translate(551.588 329.402)">
      <path id="Caminho_1010" data-name="Caminho 1010" d="M107.325,193.844c-5.062,10.5-10.09,21.017-15.2,31.494-3.308,6.782-6.777,13.487-10.076,20.273-.609,1.253-1.325,2.643-.067,4.134,1.209,1.432,2.33,3.161.38,4.818-1.349,1.146-2.954,2.324-4.83,1.125-1.556-1-2.833-2.435-2.227-4.456.628-2.091,1.916-3.646,4.458-3.393.372.037.75,0,1.125,0" fill="none" stroke="#000" stroke-linecap="round" stroke-linejoin="round" stroke-width="2"/>
      <path id="Caminho_1011" data-name="Caminho 1011" d="M112.763,193.469l34.5,35.625" fill="none" stroke="#000" stroke-linecap="round" stroke-linejoin="round" stroke-width="2"/>
      <path id="Caminho_1012" data-name="Caminho 1012" d="M83.888,252.719c8.537,1.8,17.268,2.114,25.873,3.386,1.137.168,2.252.489,3.377.739" fill="none" stroke="#000" stroke-linecap="round" stroke-linejoin="round" stroke-width="2"/>
      <path id="Caminho_1013" data-name="Caminho 1013" d="M179.513,210.719c-8.324,6.442-17.089,12.305-25.125,19.125" fill="none" stroke="#000" stroke-linecap="round" stroke-linejoin="round" stroke-width="2"/>
      <path id="Caminho_1014" data-name="Caminho 1014" d="M180.263,210.531c2.167,1.375,4.271,2.419,6.4-.17a3.622,3.622,0,0,0,.4-4.542c-1.074-2.028-2.854-2.116-4.532-1.775a3.746,3.746,0,0,0-3,4.05,14.718,14.718,0,0,0,.356,2.25" fill="none" stroke="#000" stroke-linecap="round" stroke-linejoin="round" stroke-width="2"/>
      <path id="Caminho_1015" data-name="Caminho 1015" d="M112.388,193.094c.427-2,2.372-3.841.055-6.058-1.463-1.4-2.771-1.824-4.555-1.067-2.227.944-2.54,2.927-2.179,4.862a3.352,3.352,0,0,0,3.677,2.992,18.883,18.883,0,0,0,2.627-.542" fill="none" stroke="#000" stroke-linecap="round" stroke-linejoin="round" stroke-width="2"/>
      <path id="Caminho_1016" data-name="Caminho 1016" d="M147.263,229.469c-.465,1.67-1.281,3.1.276,4.957s3.066,2.277,4.95,1.368a3.37,3.37,0,0,0,1.98-4.474,3.594,3.594,0,0,0-4.2-2.944,13.14,13.14,0,0,0-2.627.718" fill="none" stroke="#000" stroke-linecap="round" stroke-linejoin="round" stroke-width="2"/>
      <path id="Caminho_1017" data-name="Caminho 1017" d="M118.013,252.719c4.218,2.512,4.921,4.733,2.249,7.124-2,1.786-4.065,1.2-5.557-.435-1.414-1.552-1.715-3.5.274-5.228a7.159,7.159,0,0,1,2.659-1.461" fill="none" stroke="#000" stroke-linecap="round" stroke-linejoin="round" stroke-width="2"/>
      <path id="Caminho_1018" data-name="Caminho 1018" d="M134.138,253.094l-8.25,1.5" fill="none" stroke="#000" stroke-linecap="round" stroke-linejoin="round" stroke-width="2"/>
      <path id="Caminho_1019" data-name="Caminho 1019" d="M116.513,266.594l-1.5,7.5" fill="none" stroke="#000" stroke-linecap="round" stroke-linejoin="round" stroke-width="2"/>
      <path id="Caminho_1020" data-name="Caminho 1020" d="M125.138,264.344c1.5,1.5,3.111,2.908,4.455,4.537.723.876,1.478.662,2.295.713" fill="none" stroke="#000" stroke-linecap="round" stroke-linejoin="round" stroke-width="2"/>
      <path id="Caminho_1021" data-name="Caminho 1021" d="M121.388,239.969a28.893,28.893,0,0,1-1.5,7.125" fill="none" stroke="#000" stroke-linecap="round" stroke-linejoin="round" stroke-width="2"/>
    </g>
  </g>
</svg>
